<svg width="450" height="195" viewBox="0 0 450 195" fill="none" xmlns="http://www.w3.org/2000/svg">
  <style>
    .header { font: 600 18px 'Segoe UI', Ubuntu, Sans-Serif; fill: #39ff14; }
    .stat { font: 600 14px 'Segoe UI', Ubuntu, "Helvetica Neue", Sans-Serif; fill: #ffffff; }
    .icon { fill: #39ff14; }
    .stagger { opacity: 0; animation: fadeInAnimation 0.3s ease-in-out forwards; }
    @keyframes fadeInAnimation {
      from { opacity: 0; transform: translateY(-10px); }
      to { opacity: 1; transform: translateY(0); }
    }
  </style>
  <rect x="0.5" y="0.5" rx="4.5" height="194" width="449" fill="#0d1117" stroke="#39ff14" stroke-width="1"/>
  
  <g transform="translate(25, 35)">
    <text x="0" y="0" class="header">Nandan A M's GitHub Stats</text>
  </g>

  <g transform="translate(0, 55)">
    <g transform="translate(25, 25)" class="stagger" style="animation-delay: 450ms">
      <svg x="0" y="-13" class="icon" viewBox="0 0 16 16" version="1.1" width="16" height="16">
        <path fill-rule="evenodd" d="M8 .25a.75.75 0 01.673.418l1.882 3.815 4.21.612a.75.75 0 01.416 1.279l-3.046 2.97.719 4.192a.75.75 0 01-1.088.791L8 12.347l-3.766 1.98a.75.75 0 01-1.088-.79l.72-4.194L.818 6.374a.75.75 0 01.416-1.28l4.21-.611L7.327.668A.75.75 0 018 .25zm0 2.445L6.615 5.5a.75.75 0 01-.564.41l-3.097.45 2.24 2.184a.75.75 0 01.216.664l-.528 3.084 2.769-1.456a.75.75 0 01.698 0l2.77 1.456-.53-3.084a.75.75 0 01.216-.664l2.24-2.183-3.096-.45a.75.75 0 01-.564-.41L8 2.694v.001z"></path>
      </svg>
      <text x="25" y="0" class="stat">Total Stars Earned:</text>
      <text x="200" y="0" class="stat">128</text>
    </g>
    <g transform="translate(25, 55)" class="stagger" style="animation-delay: 600ms">
      <svg x="0" y="-13" class="icon" viewBox="0 0 16 16" version="1.1" width="16" height="16">
        <path fill-rule="evenodd" d="M1.5 14.25c0 .138.112.25.25.25H4v-1.25a.75.75 0 01.75-.75h2.5a.75.75 0 01.75.75v1.25h2.25a.25.25 0 00.25-.25V1.75a.25.25 0 00-.25-.25h-8.5a.25.25 0 00-.25.25v12.5zM1.75 0h8.5C11.216 0 12 .784 12 1.75v12.5c0 .966-.784 1.75-1.75 1.75h-8.5A1.75 1.75 0 010 14.25V1.75C0 .784.784 0 1.75 0zM7 9H3V8h4v1zm0-3H3V5h4v1zm2 3h1V8H9v1zm0-3h1V5H9v1z"></path>
      </svg>
      <text x="25" y="0" class="stat">Total Commits (2024):</text>
      <text x="200" y="0" class="stat">432</text>
    </g>
    <g transform="translate(25, 85)" class="stagger" style="animation-delay: 750ms">
      <svg x="0" y="-13" class="icon" viewBox="0 0 16 16" version="1.1" width="16" height="16">
        <path fill-rule="evenodd" d="M7.177 3.073L9.573.677A.25.25 0 0110 .854v4.792a.25.25 0 01-.427.177L7.177 3.427a.25.25 0 010-.354zM3.75 2.5a.75.75 0 100 1.5.75.75 0 000-1.5zm-2.25.75a2.25 2.25 0 113.598 1.8l2.598 3.117a2.75 2.75 0 11-1.157 1.157l-2.598-3.117A2.25 2.25 0 011.5 3.25zM2.5 13a1.25 1.25 0 100-2.5 1.25 1.25 0 000 2.5zm10-5a1.25 1.25 0 100-2.5 1.25 1.25 0 000 2.5zm0-3.75a2.75 2.75 0 11-1.391 5.14l-2.072 2.072a2.25 2.25 0 11-1.06-1.06l2.072-2.072A2.75 2.75 0 0112.5 4.25z"></path>
      </svg>
      <text x="25" y="0" class="stat">Total PRs:</text>
      <text x="200" y="0" class="stat">41</text>
    </g>
    <g transform="translate(25, 115)" class="stagger" style="animation-delay: 900ms">
      <svg x="0" y="-13" class="icon" viewBox="0 0 16 16" version="1.1" width="16" height="16">
        <path fill-rule="evenodd" d="M8 1.5a6.5 6.5 0 100 13 6.5 6.5 0 000-13zM0 8a8 8 0 1116 0A8 8 0 010 8zm9 3a1 1 0 11-2 0 1 1 0 012 0zM6.92 6.085c.081-.16.19-.299.34-.398.148-.097.34-.187.58-.224a1.88 1.88 0 011.026.06c.21.082.378.203.487.33.11.127.186.297.231.493a1.43 1.43 0 01-.06.76c-.05.158-.13.3-.23.42-.099.12-.224.23-.377.34l-.454.34a2.9 2.9 0 00-.514.475 1.84 1.84 0 00-.319.643H6.42a1.86 1.86 0 01.376-.842c.15-.19.34-.36.56-.5.203-.133.376-.254.502-.375.127-.12.21-.24.254-.368.044-.128.046-.263.003-.4a.69.69 0 00-.197-.33.56.56 0 00-.342-.14.73.73 0 00-.38.07c-.11.055-.2.134-.265.234a.97.97 0 00-.14.36l-1.32-.23c.045-.25.138-.474.275-.66v.001z"></path>
      </svg>
      <text x="25" y="0" class="stat">Issues Contributed:</text>
      <text x="200" y="0" class="stat">24</text>
    </g>
  </g>
</svg>