<svg width="495" height="195" viewBox="0 0 495 195" fill="none" xmlns="http://www.w3.org/2000/svg">
  <style>
    .header { font: 600 18px 'Segoe UI', Ubuntu, Sans-Serif; fill: #abd200; }
    .stat { font: 600 14px 'Segoe UI', Ubuntu, "Helvetica Neue", Sans-Serif; fill: #68b587; }
    .icon { fill: #b7d364; }
  </style>
  <rect x="0.5" y="0.5" rx="4.5" height="194" width="494" fill="#0a0f0b" stroke="#203a27" stroke-width="1"/>
  
  <text x="25" y="35" class="header">Nandan A M's GitHub Stats</text>
  
  <g transform="translate(25, 55)">
    <svg x="0" y="-13" class="icon" viewBox="0 0 16 16" width="16" height="16">
      <path fill-rule="evenodd" d="M8 .25a.75.75 0 01.673.418l1.882 3.815 4.21.612a.75.75 0 01.416 1.279l-3.046 2.97.719 4.192a.75.75 0 01-1.088.791L8 12.347l-3.766 1.98a.75.75 0 01-1.088-.79l.72-4.194L.818 6.374a.75.75 0 01.416-1.28l4.21-.611L7.327.668A.75.75 0 018 .25z"></path>
    </svg>
    <text x="25" y="0" class="stat">Total Stars Earned:</text>
    <text x="200" y="0" class="stat">128</text>

    <svg x="0" y="17" class="icon" viewBox="0 0 16 16" width="16" height="16">
      <path fill-rule="evenodd" d="M1.5 14.25c0 .138.112.25.25.25H4v-1.25a.75.75 0 01.75-.75h2.5a.75.75 0 01.75.75v1.25h2.25a.25.25 0 00.25-.25V1.75a.25.25 0 00-.25-.25h-8.5a.25.25 0 00-.25.25v12.5zM1.75 0h8.5C11.216 0 12 .784 12 1.75v12.5c0 .966-.784 1.75-1.75 1.75h-8.5A1.75 1.75 0 010 14.25V1.75C0 .784.784 0 1.75 0z"></path>
    </svg>
    <text x="25" y="30" class="stat">Total Commits (2024):</text>
    <text x="200" y="30" class="stat">432</text>

    <svg x="0" y="47" class="icon" viewBox="0 0 16 16" width="16" height="16">
      <path fill-rule="evenodd" d="M7.177 3.073L9.573.677A.25.25 0 0110 .854v4.792a.25.25 0 01-.427.177L7.177 3.427a.25.25 0 010-.354z"></path>
    </svg>
    <text x="25" y="60" class="stat">Total PRs:</text>
    <text x="200" y="60" class="stat">41</text>
    
    <svg x="0" y="77" class="icon" viewBox="0 0 16 16" width="16" height="16">
      <path fill-rule="evenodd" d="M8 1.5a6.5 6.5 0 100 13 6.5 6.5 0 000-13zM0 8a8 8 0 1116 0A8 8 0 010 8zm9 3a1 1 0 11-2 0 1 1 0 012 0z"></path>
    </svg>
    <text x="25" y="90" class="stat">Issues Contributed:</text>
    <text x="200" y="90" class="stat">24</text>
  </g>
  
  <g transform="translate(390, 85)">
    <circle cx="20" cy="20" r="40" fill="none" stroke="#203a27" stroke-width="6" />
    <circle cx="20" cy="20" r="40" fill="none" stroke="#abd200" stroke-width="6" stroke-dasharray="210" stroke-dashoffset="40" />
    <text x="20" y="27" font-weight="bold" font-size="22" fill="#b7d364" text-anchor="middle">A+</text>
  </g>
</svg>