<svg width="582" height="306" xmlns="http://www.w3.org/2000/svg">
  <rect width="582" height="306" fill="#0a0f0b"/>
  
  <g transform="translate(14,14)">
    <rect width="128" height="128" rx="10" fill="#0a0f0b" stroke="#203a27" stroke-width="1.5"/>
    <!-- cup body -->
    <path d="M42,22 L86,22 L80,54 Q64,66 64,74 L64,84 L54,84 L54,74 Q54,66 48,54 Z"
          fill="none" stroke="#b7d364" stroke-width="2.5" stroke-linejoin="round"/>
    <!-- handles -->
    <path d="M42,28 Q28,28 28,42 Q28,56 42,50" fill="none" stroke="#b7d364" stroke-width="2"/>
    <path d="M86,28 Q100,28 100,42 Q100,56 86,50" fill="none" stroke="#b7d364" stroke-width="2"/>
    <!-- base platform -->
    <rect x="46" y="84" width="36" height="4"  rx="2" fill="#b7d364" opacity="0.85"/>
    <rect x="40" y="88" width="48" height="5"  rx="2" fill="#b7d364" opacity="0.85"/>
    <!-- grade -->
    <text x="64" y="56" text-anchor="middle" fill="#b7d364"
          font-family="'Courier New',monospace" font-size="20" font-weight="bold">A</text>
    <!-- category -->
    <text x="64" y="107" text-anchor="middle" fill="#abd200"
          font-family="'Courier New',monospace" font-size="9" font-weight="bold">MultiLanguage</text>
    <!-- label -->
    <text x="64" y="117" text-anchor="middle" fill="#68b587"
          font-family="'Courier New',monospace" font-size="7.5">7 Languages</text>
    <!-- pts -->
    <text x="64" y="126" text-anchor="middle" fill="#b7d364"
          font-family="'Courier New',monospace" font-size="7" opacity="0.9">21pt</text>
  </g>
  <g transform="translate(156,14)">
    <rect width="128" height="128" rx="10" fill="#0a0f0b" stroke="#203a27" stroke-width="1.5"/>
    <!-- cup body -->
    <path d="M42,22 L86,22 L80,54 Q64,66 64,74 L64,84 L54,84 L54,74 Q54,66 48,54 Z"
          fill="none" stroke="#555" stroke-width="2.5" stroke-linejoin="round"/>
    <!-- handles -->
    <path d="M42,28 Q28,28 28,42 Q28,56 42,50" fill="none" stroke="#555" stroke-width="2"/>
    <path d="M86,28 Q100,28 100,42 Q100,56 86,50" fill="none" stroke="#555" stroke-width="2"/>
    <!-- base platform -->
    <rect x="46" y="84" width="36" height="4"  rx="2" fill="#555" opacity="0.85"/>
    <rect x="40" y="88" width="48" height="5"  rx="2" fill="#555" opacity="0.85"/>
    <!-- grade -->
    <text x="64" y="56" text-anchor="middle" fill="#555"
          font-family="'Courier New',monospace" font-size="20" font-weight="bold">?</text>
    <!-- category -->
    <text x="64" y="107" text-anchor="middle" fill="#abd200"
          font-family="'Courier New',monospace" font-size="9" font-weight="bold">Commits</text>
    <!-- label -->
    <text x="64" y="117" text-anchor="middle" fill="#68b587"
          font-family="'Courier New',monospace" font-size="7.5">High Committer</text>
    <!-- pts -->
    <text x="64" y="126" text-anchor="middle" fill="#b7d364"
          font-family="'Courier New',monospace" font-size="7" opacity="0.9">82pt</text>
  </g>
  <g transform="translate(298,14)">
    <rect width="128" height="128" rx="10" fill="#0a0f0b" stroke="#203a27" stroke-width="1.5"/>
    <!-- cup body -->
    <path d="M42,22 L86,22 L80,54 Q64,66 64,74 L64,84 L54,84 L54,74 Q54,66 48,54 Z"
          fill="none" stroke="#68b587" stroke-width="2.5" stroke-linejoin="round"/>
    <!-- handles -->
    <path d="M42,28 Q28,28 28,42 Q28,56 42,50" fill="none" stroke="#68b587" stroke-width="2"/>
    <path d="M86,28 Q100,28 100,42 Q100,56 86,50" fill="none" stroke="#68b587" stroke-width="2"/>
    <!-- base platform -->
    <rect x="46" y="84" width="36" height="4"  rx="2" fill="#68b587" opacity="0.85"/>
    <rect x="40" y="88" width="48" height="5"  rx="2" fill="#68b587" opacity="0.85"/>
    <!-- grade -->
    <text x="64" y="56" text-anchor="middle" fill="#68b587"
          font-family="'Courier New',monospace" font-size="20" font-weight="bold">B</text>
    <!-- category -->
    <text x="64" y="107" text-anchor="middle" fill="#abd200"
          font-family="'Courier New',monospace" font-size="9" font-weight="bold">Followers</text>
    <!-- label -->
    <text x="64" y="117" text-anchor="middle" fill="#68b587"
          font-family="'Courier New',monospace" font-size="7.5">Dynamic User</text>
    <!-- pts -->
    <text x="64" y="126" text-anchor="middle" fill="#b7d364"
          font-family="'Courier New',monospace" font-size="7" opacity="0.9">52pt</text>
  </g>
  <g transform="translate(440,14)">
    <rect width="128" height="128" rx="10" fill="#0a0f0b" stroke="#203a27" stroke-width="1.5"/>
    <!-- cup body -->
    <path d="M42,22 L86,22 L80,54 Q64,66 64,74 L64,84 L54,84 L54,74 Q54,66 48,54 Z"
          fill="none" stroke="#b7d364" stroke-width="2.5" stroke-linejoin="round"/>
    <!-- handles -->
    <path d="M42,28 Q28,28 28,42 Q28,56 42,50" fill="none" stroke="#b7d364" stroke-width="2"/>
    <path d="M86,28 Q100,28 100,42 Q100,56 86,50" fill="none" stroke="#b7d364" stroke-width="2"/>
    <!-- base platform -->
    <rect x="46" y="84" width="36" height="4"  rx="2" fill="#b7d364" opacity="0.85"/>
    <rect x="40" y="88" width="48" height="5"  rx="2" fill="#b7d364" opacity="0.85"/>
    <!-- grade -->
    <text x="64" y="56" text-anchor="middle" fill="#b7d364"
          font-family="'Courier New',monospace" font-size="20" font-weight="bold">A</text>
    <!-- category -->
    <text x="64" y="107" text-anchor="middle" fill="#abd200"
          font-family="'Courier New',monospace" font-size="9" font-weight="bold">Repositories</text>
    <!-- label -->
    <text x="64" y="117" text-anchor="middle" fill="#68b587"
          font-family="'Courier New',monospace" font-size="7.5">High Repo Creator</text>
    <!-- pts -->
    <text x="64" y="126" text-anchor="middle" fill="#b7d364"
          font-family="'Courier New',monospace" font-size="7" opacity="0.9">56pt</text>
  </g>
  <g transform="translate(14,156)">
    <rect width="128" height="128" rx="10" fill="#0a0f0b" stroke="#203a27" stroke-width="1.5"/>
    <!-- cup body -->
    <path d="M42,22 L86,22 L80,54 Q64,66 64,74 L64,84 L54,84 L54,74 Q54,66 48,54 Z"
          fill="none" stroke="#b7d364" stroke-width="2.5" stroke-linejoin="round"/>
    <!-- handles -->
    <path d="M42,28 Q28,28 28,42 Q28,56 42,50" fill="none" stroke="#b7d364" stroke-width="2"/>
    <path d="M86,28 Q100,28 100,42 Q100,56 86,50" fill="none" stroke="#b7d364" stroke-width="2"/>
    <!-- base platform -->
    <rect x="46" y="84" width="36" height="4"  rx="2" fill="#b7d364" opacity="0.85"/>
    <rect x="40" y="88" width="48" height="5"  rx="2" fill="#b7d364" opacity="0.85"/>
    <!-- grade -->
    <text x="64" y="56" text-anchor="middle" fill="#b7d364"
          font-family="'Courier New',monospace" font-size="20" font-weight="bold">A</text>
    <!-- category -->
    <text x="64" y="107" text-anchor="middle" fill="#abd200"
          font-family="'Courier New',monospace" font-size="9" font-weight="bold">Experience</text>
    <!-- label -->
    <text x="64" y="117" text-anchor="middle" fill="#68b587"
          font-family="'Courier New',monospace" font-size="7.5">Intermediate Dev</text>
    <!-- pts -->
    <text x="64" y="126" text-anchor="middle" fill="#b7d364"
          font-family="'Courier New',monospace" font-size="7" opacity="0.9">15pt</text>
  </g>
  <g transform="translate(156,156)">
    <rect width="128" height="128" rx="10" fill="#0a0f0b" stroke="#203a27" stroke-width="1.5"/>
    <!-- cup body -->
    <path d="M42,22 L86,22 L80,54 Q64,66 64,74 L64,84 L54,84 L54,74 Q54,66 48,54 Z"
          fill="none" stroke="#555" stroke-width="2.5" stroke-linejoin="round"/>
    <!-- handles -->
    <path d="M42,28 Q28,28 28,42 Q28,56 42,50" fill="none" stroke="#555" stroke-width="2"/>
    <path d="M86,28 Q100,28 100,42 Q100,56 86,50" fill="none" stroke="#555" stroke-width="2"/>
    <!-- base platform -->
    <rect x="46" y="84" width="36" height="4"  rx="2" fill="#555" opacity="0.85"/>
    <rect x="40" y="88" width="48" height="5"  rx="2" fill="#555" opacity="0.85"/>
    <!-- grade -->
    <text x="64" y="56" text-anchor="middle" fill="#555"
          font-family="'Courier New',monospace" font-size="20" font-weight="bold">?</text>
    <!-- category -->
    <text x="64" y="107" text-anchor="middle" fill="#abd200"
          font-family="'Courier New',monospace" font-size="9" font-weight="bold">Stars</text>
    <!-- label -->
    <text x="64" y="117" text-anchor="middle" fill="#68b587"
          font-family="'Courier New',monospace" font-size="7.5">7 Stars</text>
    <!-- pts -->
    <text x="64" y="126" text-anchor="middle" fill="#b7d364"
          font-family="'Courier New',monospace" font-size="7" opacity="0.9">7pt</text>
  </g>
  <g transform="translate(298,156)">
    <rect width="128" height="128" rx="10" fill="#0a0f0b" stroke="#203a27" stroke-width="1.5"/>
    <!-- cup body -->
    <path d="M42,22 L86,22 L80,54 Q64,66 64,74 L64,84 L54,84 L54,74 Q54,66 48,54 Z"
          fill="none" stroke="#68b587" stroke-width="2.5" stroke-linejoin="round"/>
    <!-- handles -->
    <path d="M42,28 Q28,28 28,42 Q28,56 42,50" fill="none" stroke="#68b587" stroke-width="2"/>
    <path d="M86,28 Q100,28 100,42 Q100,56 86,50" fill="none" stroke="#68b587" stroke-width="2"/>
    <!-- base platform -->
    <rect x="46" y="84" width="36" height="4"  rx="2" fill="#68b587" opacity="0.85"/>
    <rect x="40" y="88" width="48" height="5"  rx="2" fill="#68b587" opacity="0.85"/>
    <!-- grade -->
    <text x="64" y="56" text-anchor="middle" fill="#68b587"
          font-family="'Courier New',monospace" font-size="20" font-weight="bold">C</text>
    <!-- category -->
    <text x="64" y="107" text-anchor="middle" fill="#abd200"
          font-family="'Courier New',monospace" font-size="9" font-weight="bold">Issues</text>
    <!-- label -->
    <text x="64" y="117" text-anchor="middle" fill="#68b587"
          font-family="'Courier New',monospace" font-size="7.5">First Issue</text>
    <!-- pts -->
    <text x="64" y="126" text-anchor="middle" fill="#b7d364"
          font-family="'Courier New',monospace" font-size="7" opacity="0.9">1pt</text>
  </g>
  <g transform="translate(440,156)">
    <rect width="128" height="128" rx="10" fill="#0a0f0b" stroke="#203a27" stroke-width="1.5"/>
    <!-- cup body -->
    <path d="M42,22 L86,22 L80,54 Q64,66 64,74 L64,84 L54,84 L54,74 Q54,66 48,54 Z"
          fill="none" stroke="#68b587" stroke-width="2.5" stroke-linejoin="round"/>
    <!-- handles -->
    <path d="M42,28 Q28,28 28,42 Q28,56 42,50" fill="none" stroke="#68b587" stroke-width="2"/>
    <path d="M86,28 Q100,28 100,42 Q100,56 86,50" fill="none" stroke="#68b587" stroke-width="2"/>
    <!-- base platform -->
    <rect x="46" y="84" width="36" height="4"  rx="2" fill="#68b587" opacity="0.85"/>
    <rect x="40" y="88" width="48" height="5"  rx="2" fill="#68b587" opacity="0.85"/>
    <!-- grade -->
    <text x="64" y="56" text-anchor="middle" fill="#68b587"
          font-family="'Courier New',monospace" font-size="20" font-weight="bold">C</text>
    <!-- category -->
    <text x="64" y="107" text-anchor="middle" fill="#abd200"
          font-family="'Courier New',monospace" font-size="9" font-weight="bold">PullRequest</text>
    <!-- label -->
    <text x="64" y="117" text-anchor="middle" fill="#68b587"
          font-family="'Courier New',monospace" font-size="7.5">First Pull</text>
    <!-- pts -->
    <text x="64" y="126" text-anchor="middle" fill="#b7d364"
          font-family="'Courier New',monospace" font-size="7" opacity="0.9">8pt</text>
  </g>
</svg>